<svg width="130" height="130" viewBox="0 0 130 130" fill="none" xmlns="http://www.w3.org/2000/svg">
<path d="M107.336 70.3333C106.149 79.7327 101.869 88.4702 95.1694 95.1694C88.4702 101.869 79.7328 106.149 70.3334 107.336V91.6666H59.6667V107.336C50.2673 106.149 41.5298 101.869 34.8306 95.1694C28.1314 88.4702 23.8511 79.7327 22.664 70.3333H38.3334V59.6666H22.664C23.8511 50.2672 28.1314 41.5297 34.8306 34.8305C41.5298 28.1313 50.2673 23.8511 59.6667 22.664V38.3333H70.3334V22.664C79.7328 23.8511 88.4702 28.1313 95.1694 34.8305C101.869 41.5297 106.149 50.2672 107.336 59.6666H91.6667V70.3333H107.336ZM11.6667 65C11.6667 94.456 35.544 118.333 65 118.333C94.456 118.333 118.333 94.456 118.333 65C118.333 35.544 94.456 11.6666 65 11.6666C35.544 11.6666 11.6667 35.544 11.6667 65ZM65 81C69.2435 81 73.3131 79.3142 76.3137 76.3137C79.3143 73.3131 81 69.2434 81 65C81 60.7565 79.3143 56.6868 76.3137 53.6862C73.3131 50.6857 69.2435 49 65 49C60.7566 49 56.6869 50.6857 53.6863 53.6862C50.6857 56.6868 49 60.7565 49 65C49 69.2434 50.6857 73.3131 53.6863 76.3137C56.6869 79.3142 60.7566 81 65 81Z" fill="url(#paint0_linear_2001_5)"/>
<defs>
<linearGradient id="paint0_linear_2001_5" x1="65" y1="11.6666" x2="65" y2="118.333" gradientUnits="userSpaceOnUse">
<stop stop-color="#0071E3"/>
<stop offset="1" stop-color="#00458B"/>
</linearGradient>
</defs>
</svg>
